<?xml version="1.0" encoding="utf-8"?>
<!-- Generator: Adobe Illustrator 19.0.0, SVG Export Plug-In . SVG Version: 6.00 Build 0)  -->
<svg version="1.1" id="Capa_1" xmlns="http://www.w3.org/2000/svg" xmlns:xlink="http://www.w3.org/1999/xlink" x="0px" y="0px"
	 viewBox="-223 25 512 512" style="enable-background:new -223 25 512 512;" xml:space="preserve">
<style type="text/css">
	.st0{fill:#1E90F1;}
</style>
<g>
	<g>
		<path class="st0" d="M68.8,313.9c-4.3-0.7-8.5-0.2-12.4,1.3v-96c19.4-9.1,32.1-28.7,32.1-50.4c0-30.7-24.9-55.6-55.6-55.6
			s-55.6,24.9-55.6,55.6c0,21.7,12.7,41.3,32.1,50.4v64c-3.9-1.5-8.2-2-12.4-1.3c-9.1,1.5-16.4,8.6-18.8,17.7
			c-4.1-1.8-8.7-2.4-13.3-1.6c-9.1,1.5-16.4,8.6-18.8,17.7c-4.1-1.8-8.7-2.4-13.3-1.6c-11.2,1.8-19.6,12.2-19.6,24.1v51.4
			c0,8.5,1,16.9,3.1,25.1l10.3,41.2c1.8,7,2.6,14.3,2.6,21.5v52.3c0,4.1,3.4,7.5,7.5,7.5s7.5-3.4,7.5-7.5v-52.3
			c0-8.5-1-16.9-3.1-25.1l-10.3-41.2c-1.8-7-2.6-14.3-2.6-21.5V338c0-4.6,3.1-8.6,7-9.3c2.6-0.4,5.1,0.3,7,1.9c1.9,1.6,3,4,3,6.5
			c0,4.1,3.4,7.5,7.5,7.5s7.5-3.4,7.5-7.5v-15.2c0-4.6,3.1-8.6,7-9.3c2.6-0.4,5.1,0.3,7,1.9c1.9,1.6,3,4,3,6.5
			c0,4.1,3.4,7.5,7.5,7.5s7.5-3.4,7.5-7.5v-15.2c0-4.6,3.1-8.6,7-9.3c2.6-0.4,5.1,0.3,7,1.9c1.9,1.6,3,4,3,6.5
			c0,4.1,3.4,7.5,7.5,7.5s7.5-3.4,7.5-7.5V169.6c0-4.6,3.1-8.6,7-9.3c2.6-0.4,5.1,0.3,7,1.9c1.9,1.6,3,4,3,6.5v168.3
			c0,4.1,3.4,7.5,7.5,7.5s7.5-3.4,7.5-7.5c0-2.5,1.1-4.9,3-6.5c1.9-1.6,4.4-2.3,7-1.9c4,0.6,7,4.7,7,9.3v52.7
			c0,6.5-0.7,12.9-2.1,19.2l-11.5,51.5c-1.6,7.4-2.5,14.9-2.5,22.5v45.6c0,4.1,3.4,7.5,7.5,7.5s7.5-3.4,7.5-7.5v-45.6
			c0-6.5,0.7-12.9,2.1-19.2L86,413.2c1.6-7.4,2.5-14.9,2.5-22.5V338C88.4,326.1,80,315.7,68.8,313.9z M48.1,150.8
			c-5.3-4.5-12.2-6.4-19.1-5.3c-11.2,1.8-19.6,12.2-19.6,24.1v32.2c-10.5-7.5-17.1-19.7-17.1-33.1c0-22.4,18.2-40.6,40.6-40.6
			s40.6,18.2,40.6,40.6c0,13.3-6.6,25.6-17.1,33.1v-33.1C56.4,161.9,53.4,155.3,48.1,150.8z"/>
	</g>
</g>
<g>
	<g>
		<path class="st0" d="M-98.1,130.1c-4-0.9-8.1,1.6-9,5.6c-1.3,5.5-2.3,11-2.9,16.6c-0.5,4.1,2.5,7.8,6.6,8.3c0.3,0,0.6,0,0.9,0
			c3.8,0,7-2.8,7.4-6.7c0.6-5,1.4-10,2.6-14.9C-91.6,135.1-94.1,131.1-98.1,130.1z"/>
	</g>
</g>
<g>
	<g>
		<path class="st0" d="M162.6,106.9c-2.4-5.1-5.2-10-8.1-14.8c-2.2-3.5-6.8-4.5-10.3-2.3c-3.5,2.2-4.5,6.8-2.3,10.3
			c2.7,4.2,5.1,8.7,7.3,13.2c1.3,2.7,4,4.3,6.8,4.3c1.1,0,2.2-0.2,3.2-0.7C162.9,115.1,164.4,110.6,162.6,106.9z"/>
	</g>
</g>
<g>
	<g>
		<path class="st0" d="M-41.9,54.6c-2.5-3.3-7.2-4-10.5-1.6c-4.5,3.3-8.9,7-13,10.8c-3,2.8-3.2,7.6-0.4,10.6
			c1.5,1.6,3.5,2.4,5.5,2.4c1.8,0,3.7-0.7,5.1-2c3.7-3.4,7.6-6.7,11.6-9.7C-40.2,62.6-39.4,57.9-41.9,54.6z"/>
	</g>
</g>
<g>
	<g>
		<path class="st0" d="M-76.7,87.4c-3.5-2.3-8.1-1.3-10.4,2.1c-3.1,4.7-6,9.6-8.5,14.6c-1.9,3.7-0.4,8.2,3.3,10.1
			c1.1,0.5,2.2,0.8,3.4,0.8c2.7,0,5.4-1.5,6.7-4.1c2.3-4.5,4.8-8.9,7.6-13.1C-72.3,94.3-73.2,89.7-76.7,87.4z"/>
	</g>
</g>
<g>
	<g>
		<path class="st0" d="M176,155.4c-0.5-5.6-1.4-11.2-2.5-16.7c-0.9-4.1-4.8-6.6-8.9-5.8c-4.1,0.9-6.6,4.8-5.8,8.9
			c1,4.9,1.8,9.9,2.3,14.9c0.4,3.9,3.6,6.8,7.5,6.8c0.2,0,0.5,0,0.7,0C173.4,163.2,176.4,159.6,176,155.4z"/>
	</g>
</g>
<g>
	<g>
		<path class="st0" d="M91.7,37.6c-5.1-2.3-10.4-4.3-15.8-6c-4-1.2-8.2,1-9.4,4.9c-1.2,4,1,8.2,4.9,9.4c4.8,1.5,9.5,3.3,14.1,5.4
			c1,0.4,2,0.7,3.1,0.7c2.9,0,5.6-1.6,6.8-4.4C97.2,43.7,95.5,39.3,91.7,37.6z"/>
	</g>
</g>
<g>
	<g>
		<path class="st0" d="M42.8,25.3C37.3,25,31.6,24.9,26,25.2c-4.1,0.2-7.3,3.7-7.1,7.8s3.7,7.3,7.8,7.1c5-0.2,10.1-0.2,15.1,0.2
			c0.2,0,0.3,0,0.5,0c3.9,0,7.2-3,7.5-7C50.1,29.2,47,25.6,42.8,25.3z"/>
	</g>
</g>
<g>
	<g>
		<path class="st0" d="M2,35.8c-1.2-4-5.3-6.3-9.3-5.1c-5.4,1.6-10.7,3.5-15.9,5.6c-3.8,1.6-5.6,6-4,9.8c1.2,2.9,4,4.6,6.9,4.6
			c1,0,2-0.2,2.9-0.6c4.6-2,9.4-3.7,14.2-5.1C0.9,43.9,3.2,39.8,2,35.8z"/>
	</g>
</g>
<g>
	<g>
		<path class="st0" d="M133.3,65.9c-4-3.9-8.3-7.6-12.7-11.1c-3.3-2.5-8-1.9-10.5,1.4c-2.5,3.3-1.9,8,1.4,10.5
			c4,3.1,7.8,6.4,11.4,9.9c1.5,1.4,3.4,2.1,5.2,2.1c1.9,0,3.9-0.8,5.4-2.3C136.3,73.6,136.3,68.8,133.3,65.9z"/>
	</g>
</g>
<g>
	<g>
		<path class="st0" d="M-92.3,199.1c-1.2-4.9-2.1-9.9-2.7-14.9c-0.5-4.1-4.2-7-8.3-6.6c-4.1,0.5-7,4.2-6.6,8.3
			c0.7,5.6,1.7,11.2,3,16.6c0.8,3.4,3.9,5.7,7.3,5.7c0.6,0,1.2-0.1,1.8-0.2C-93.8,207.2-91.4,203.1-92.3,199.1z"/>
	</g>
</g>
<g>
	<g>
		<path class="st0" d="M128.8,265.8c-2.7-3.1-7.5-3.4-10.6-0.6c-3.8,3.3-7.8,6.5-11.9,9.3c-3.4,2.4-4.2,7-1.9,10.4
			c1.5,2.1,3.8,3.2,6.2,3.2c1.5,0,3-0.4,4.3-1.3c4.6-3.2,9.1-6.7,13.3-10.4C131.3,273.7,131.5,268.9,128.8,265.8z"/>
	</g>
</g>
<g>
	<g>
		<path class="st0" d="M156.4,226.8c-3.6-2-8.2-0.6-10.2,3c-2.4,4.4-5.1,8.7-7.9,12.9c-2.4,3.4-1.6,8.1,1.8,10.4
			c1.3,0.9,2.8,1.4,4.3,1.4c2.4,0,4.7-1.1,6.1-3.2c3.2-4.6,6.2-9.4,8.9-14.4C161.4,233.3,160.1,228.8,156.4,226.8z"/>
	</g>
</g>
<g>
	<g>
		<path class="st0" d="M-42.9,272.9c-4.1-3-8-6.2-11.7-9.6c-3-2.8-7.8-2.6-10.6,0.4c-2.8,3-2.6,7.8,0.4,10.6
			c4.1,3.8,8.5,7.4,13,10.7c1.3,1,2.9,1.4,4.4,1.4c2.3,0,4.6-1.1,6.1-3.1C-38.8,280.1-39.6,275.4-42.9,272.9z"/>
	</g>
</g>
<g>
	<g>
		<path class="st0" d="M89.4,293c-1.5-3.9-5.9-5.8-9.7-4.3c-0.5,0.2-1,0.4-1.4,0.5c-3.9,1.5-5.8,5.8-4.4,9.7c1.1,3,4,4.9,7,4.9
			c0.9,0,1.8-0.2,2.6-0.5c0.5-0.2,1.1-0.4,1.6-0.6C89,301.2,90.9,296.9,89.4,293z"/>
	</g>
</g>
<g>
	<g>
		<path class="st0" d="M-74.2,240.4c-2.8-4.2-5.4-8.6-7.7-13c-1.9-3.7-6.4-5.1-10.1-3.3c-3.7,1.9-5.1,6.4-3.3,10.1
			c2.6,5,5.4,9.9,8.6,14.5c1.4,2.2,3.8,3.3,6.2,3.3c1.4,0,2.9-0.4,4.2-1.3C-72.8,248.5-71.9,243.8-74.2,240.4z"/>
	</g>
</g>
<g>
	<g>
		<path class="st0" d="M168.8,180.6c-4.1-0.6-7.9,2.3-8.5,6.4c-0.7,5-1.7,10-3,14.8c-1.1,4,1.3,8.1,5.3,9.2c0.6,0.2,1.3,0.3,1.9,0.3
			c3.3,0,6.4-2.2,7.2-5.6c1.4-5.4,2.6-11,3.3-16.6C175.8,185,172.9,181.2,168.8,180.6z"/>
	</g>
</g>
<g>
	<g>
		<path class="st0" d="M32.8,65.1c-57.2,0-103.7,46.5-103.7,103.7c0,36.9,19.9,71.3,51.9,89.8c1.2,0.7,2.5,1,3.7,1
			c2.6,0,5.1-1.3,6.5-3.7c2.1-3.6,0.8-8.2-2.7-10.2c-27.4-15.8-44.4-45.3-44.4-76.8c0-48.9,39.8-88.7,88.7-88.7s88.7,39.8,88.7,88.7
			c0,31.6-17,61-44.3,76.8c-3.6,2.1-4.8,6.7-2.7,10.2c2.1,3.6,6.7,4.8,10.2,2.7c32-18.5,51.8-52.9,51.8-89.8
			C136.5,111.6,90,65.1,32.8,65.1z"/>
	</g>
</g>
</svg>
