<?xml version="1.0" encoding="utf-8"?>
<!-- Generator: Adobe Illustrator 19.0.0, SVG Export Plug-In . SVG Version: 6.00 Build 0)  -->
<svg version="1.1" id="Capa_1" xmlns="http://www.w3.org/2000/svg" xmlns:xlink="http://www.w3.org/1999/xlink" x="0px" y="0px"
	 viewBox="-239 41 480 480" style="enable-background:new -239 41 480 480;" xml:space="preserve">
<style type="text/css">
	.st0{fill:#1E90F1;}
</style>
<g>
	<g>
		<rect x="-199" y="89" class="st0" width="104" height="16"/>
	</g>
</g>
<g>
	<g>
		<rect x="-199" y="121" class="st0" width="104" height="16"/>
	</g>
</g>
<g>
	<g>
		<rect x="-199" y="153" class="st0" width="72" height="16"/>
	</g>
</g>
<g>
	<g>
		<rect x="-199" y="185" class="st0" width="72" height="16"/>
	</g>
</g>
<g>
	<g>
		<rect x="-239" y="505" class="st0" width="480" height="16"/>
	</g>
</g>
<g>
	<g>
		<path class="st0" d="M224.2,109.4l-32-64c-2-4-6.8-5.6-10.7-3.6c0,0,0,0,0,0l-64,32c-4,2-5.6,6.8-3.6,10.7s6.8,5.6,10.7,3.6
			L170.9,65l-12.6,36.1C102.7,259.4-40.5,370.5-207.7,385l1.4,16c173.5-15,322.1-130.3,379.7-294.6l12.9-36.9l23.5,47.1
			c2,4,6.8,5.6,10.7,3.6C224.5,118.2,226.1,113.4,224.2,109.4z"/>
	</g>
</g>
<g>
	<g>
		<path class="st0" d="M-143,425h-56c-4.4,0-8,3.6-8,8v48c0,4.4,3.6,8,8,8h56c4.4,0,8-3.6,8-8v-48C-135,428.6-138.6,425-143,425z
			 M-151,473h-40v-32h40V473z"/>
	</g>
</g>
<g>
	<g>
		<path class="st0" d="M-55,401h-56c-4.4,0-8,3.6-8,8v72c0,4.4,3.6,8,8,8h56c4.4,0,8-3.6,8-8v-72C-47,404.6-50.6,401-55,401z
			 M-63,473h-40v-56h40V473z"/>
	</g>
</g>
<g>
	<g>
		<path class="st0" d="M33,361h-56c-4.4,0-8,3.6-8,8v112c0,4.4,3.6,8,8,8h56c4.4,0,8-3.6,8-8V369C41,364.6,37.4,361,33,361z M25,473
			h-40v-96h40V473z"/>
	</g>
</g>
<g>
	<g>
		<path class="st0" d="M121,305H65c-4.4,0-8,3.6-8,8v168c0,4.4,3.6,8,8,8h56c4.4,0,8-3.6,8-8V313C129,308.6,125.4,305,121,305z
			 M113,473H73V321h40V473z"/>
	</g>
</g>
<g>
	<g>
		<path class="st0" d="M209,193h-56c-4.4,0-8,3.6-8,8v280c0,4.4,3.6,8,8,8h56c4.4,0,8-3.6,8-8V201C217,196.6,213.4,193,209,193z
			 M201,473h-40V209h40V473z"/>
	</g>
</g>
</svg>
