<?xml version="1.0" encoding="utf-8"?>
<!-- Generator: Adobe Illustrator 19.0.0, SVG Export Plug-In . SVG Version: 6.00 Build 0)  -->
<svg version="1.1" id="Layer_1" xmlns="http://www.w3.org/2000/svg" xmlns:xlink="http://www.w3.org/1999/xlink" x="0px" y="0px"
	 viewBox="-239 41 480 480" style="enable-background:new -239 41 480 480;" xml:space="preserve">
<style type="text/css">
	.st0{fill:#1E90F1;}
</style>
<path class="st0" d="M233,441h-464c-4.4,0-8,3.6-8,8v64c0,4.4,3.6,8,8,8h464c4.4,0,8-3.6,8-8v-64C241,444.6,237.4,441,233,441z
	 M-223,457H49v48h-272V457z M225,505H65v-48h160V505z"/>
<path class="st0" d="M185,489h16c4.4,0,8-3.6,8-8s-3.6-8-8-8h-16c-4.4,0-8,3.6-8,8S180.6,489,185,489z"/>
<path class="st0" d="M137,489h16c4.4,0,8-3.6,8-8s-3.6-8-8-8h-16c-4.4,0-8,3.6-8,8S132.6,489,137,489z"/>
<path class="st0" d="M89,489h16c4.4,0,8-3.6,8-8s-3.6-8-8-8H89c-4.4,0-8,3.6-8,8S84.6,489,89,489z"/>
<path class="st0" d="M17,249h-32c-26.5,0-48,21.5-48,48v24c0,4.4,3.6,8,8,8H57c4.4,0,8-3.6,8-8v-24C65,270.5,43.5,249,17,249z
	 M49,313h-96v-16c0-17.7,14.3-32,32-32h32c17.7,0,32,14.3,32,32V313z"/>
<path class="st0" d="M33,217c0-17.7-14.3-32-32-32s-32,14.3-32,32s14.3,32,32,32S33,234.7,33,217z M1,233c-8.8,0-16-7.2-16-16
	s7.2-16,16-16s16,7.2,16,16S9.8,233,1,233z"/>
<path class="st0" d="M-111,201h-80v-16c0-17.7,14.3-32,32-32h32c4.3,0,8.5,0.8,12.5,2.5c4.1,1.7,8.7-0.2,10.4-4.3
	c1.7-4.1-0.2-8.7-4.2-10.5c-5.9-2.5-12.3-3.8-18.7-3.8h-32c-26.5,0-48,21.5-48,48v24c0,4.4,3.6,8,8,8h88c4.4,0,8-3.6,8-8
	S-106.6,201-111,201z"/>
<path class="st0" d="M-111,105c0-17.7-14.3-32-32-32s-32,14.3-32,32s14.3,32,32,32S-111,122.7-111,105z M-143,121
	c-8.8,0-16-7.2-16-16s7.2-16,16-16s16,7.2,16,16S-134.2,121-143,121z"/>
<path class="st0" d="M116.1,155.7c4.1-1.8,8.4-2.7,12.9-2.7h32c17.7,0,32,14.3,32,32v16h-80c-4.4,0-8,3.6-8,8s3.6,8,8,8h88
	c4.4,0,8-3.6,8-8v-24c0-26.5-21.5-48-48-48h-32c-6.7,0-13.2,1.4-19.3,4.1c-4,1.8-5.9,6.5-4.1,10.6
	C107.4,155.6,112.1,157.5,116.1,155.7z"/>
<path class="st0" d="M177,105c0-17.7-14.3-32-32-32s-32,14.3-32,32s14.3,32,32,32S177,122.7,177,105z M145,121c-8.8,0-16-7.2-16-16
	s7.2-16,16-16s16,7.2,16,16S153.8,121,145,121z"/>
<path class="st0" d="M233,41H57c-4.4,0-8,3.6-8,8v104h-96V49c0-4.4-3.6-8-8-8h-176c-4.4,0-8,3.6-8,8v192c0,4.4,3.6,8,8,8h51.1
	l29.8,59.6c1.4,2.7,4.1,4.4,7.2,4.4s5.8-1.7,7.2-4.4l29.8-59.6H-95v104c0,4.4,3.6,8,8,8h51.1l29.8,59.6C-4.8,423.3-2,425,1,425
	s5.8-1.7,7.2-4.4L37.9,361H89c4.4,0,8-3.6,8-8V249h11.1l29.8,59.6c1.4,2.7,4.1,4.4,7.2,4.4s5.8-1.7,7.2-4.4l29.8-59.6H233
	c4.4,0,8-3.6,8-8V49C241,44.6,237.4,41,233,41z M-111,233c-3,0-5.8,1.7-7.2,4.4l-24.8,49.7l-24.8-49.7c-1.4-2.7-4.2-4.4-7.2-4.4h-48
	V57h160v96h-24c-4.4,0-8,3.6-8,8v72H-111z M81,345H33c-3,0-5.8,1.7-7.2,4.4L1,399.1l-24.8-49.7c-1.4-2.7-4.2-4.4-7.2-4.4h-48V169H81
	V345z M225,233h-48c-3,0-5.8,1.7-7.2,4.4L145,287.1l-24.8-49.7c-1.4-2.7-4.2-4.4-7.2-4.4H97v-72c0-4.4-3.6-8-8-8H65V57h160V233z"/>
</svg>
